<svg width="164" height="50" viewBox="0 0 164 50" fill="none" xmlns="http://www.w3.org/2000/svg">
<path d="M69.6362 33L65.5962 16.92H66.2162L70.2562 33H69.6362ZM66.9162 33L62.8762 16.92H63.4962L67.5362 33H66.9162ZM68.2762 33L64.2362 16.92H64.8562L68.8962 33H68.2762ZM70.6362 31.52L70.3162 30.26L73.6762 16.92H74.2962L70.6362 31.52ZM69.9362 28.84L69.6362 27.62L72.3162 16.92H72.9362L69.9362 28.84ZM69.2562 26.12L68.9762 24.86L70.9562 16.92H71.5762L69.2562 26.12ZM77.8562 31.48L77.5562 30.24L80.8962 16.92H81.5162L77.8562 31.48ZM77.1962 28.76L76.8962 27.52L79.5362 16.92H80.1562L77.1962 28.76ZM76.4962 26.04L76.1962 24.8L78.1762 16.92H78.7962L76.4962 26.04ZM76.8762 33L73.9362 21.34L74.2562 20.08L77.4962 33H76.8762ZM75.5362 33L73.2762 23.98L73.5762 22.76L76.1562 33H75.5362ZM74.1762 33L72.5762 26.68L72.8962 25.42L74.7962 33H74.1762ZM89.5937 28.98C89.5937 28.2867 89.427 27.6733 89.0937 27.14C88.7737 26.5933 88.327 26.16 87.7537 25.84C87.1937 25.52 86.5604 25.36 85.8537 25.36C85.147 25.36 84.507 25.52 83.9337 25.84C83.3737 26.16 82.927 26.5933 82.5937 27.14C82.2737 27.6733 82.1137 28.2867 82.1137 28.98C82.1137 29.66 82.2737 30.2733 82.5937 30.82C82.927 31.3667 83.3737 31.8 83.9337 32.12C84.507 32.44 85.147 32.6 85.8537 32.6C86.5604 32.6 87.1937 32.44 87.7537 32.12C88.327 31.8 88.7737 31.3667 89.0937 30.82C89.427 30.2733 89.5937 29.66 89.5937 28.98ZM88.2737 28.98C88.2737 28.3133 88.0404 27.7667 87.5737 27.34C87.1204 26.9 86.547 26.68 85.8537 26.68C85.1604 26.68 84.5804 26.9 84.1137 27.34C83.6604 27.7667 83.4337 28.3133 83.4337 28.98C83.4337 29.6333 83.6604 30.18 84.1137 30.62C84.5804 31.06 85.1604 31.28 85.8537 31.28C86.547 31.28 87.1204 31.06 87.5737 30.62C88.0404 30.18 88.2737 29.6333 88.2737 28.98ZM85.8537 31.88C85.2804 31.88 84.767 31.7533 84.3137 31.5C83.8604 31.2467 83.5004 30.9 83.2337 30.46C82.967 30.02 82.8337 29.5267 82.8337 28.98C82.8337 28.4333 82.967 27.94 83.2337 27.5C83.5004 27.06 83.8604 26.7133 84.3137 26.46C84.767 26.2067 85.2804 26.08 85.8537 26.08C86.427 26.08 86.9404 26.2067 87.3937 26.46C87.847 26.7133 88.207 27.06 88.4737 27.5C88.7404 27.94 88.8737 28.4333 88.8737 28.98C88.8737 29.5267 88.7404 30.02 88.4737 30.46C88.207 30.9 87.847 31.2467 87.3937 31.5C86.9404 31.7533 86.427 31.88 85.8537 31.88ZM85.8537 33.2C85.0404 33.2 84.307 33.0133 83.6537 32.64C83.0004 32.2667 82.4804 31.76 82.0937 31.12C81.707 30.48 81.5137 29.7667 81.5137 28.98C81.5137 28.18 81.707 27.4667 82.0937 26.84C82.4804 26.2 83.0004 25.6933 83.6537 25.32C84.307 24.9467 85.0404 24.76 85.8537 24.76C86.667 24.76 87.4004 24.9467 88.0537 25.32C88.707 25.6933 89.227 26.2 89.6137 26.84C90.0004 27.4667 90.1937 28.18 90.1937 28.98C90.1937 29.7667 90.0004 30.48 89.6137 31.12C89.227 31.76 88.707 32.2667 88.0537 32.64C87.4004 33.0133 86.667 33.2 85.8537 33.2ZM92.9165 33V24.96H96.0565C96.7098 24.9733 97.2698 25.2 97.7365 25.64C98.2032 26.0667 98.4365 26.66 98.4365 27.42C98.4365 28.0067 98.2898 28.5 97.9965 28.9C97.7165 29.3 97.3498 29.58 96.8965 29.74L98.2965 33H97.6365L96.3165 29.86C96.2098 29.8733 96.1232 29.88 96.0565 29.88H95.5365L96.8565 33H96.1965L94.8765 29.88H93.5165V33H92.9165ZM91.5965 33V24.96H92.1965V33H91.5965ZM96.0165 25.56H93.5165V26.28H96.0565C96.3765 26.2933 96.6298 26.4067 96.8165 26.62C97.0165 26.82 97.1165 27.0867 97.1165 27.42C97.1165 27.7533 97.0165 28.0267 96.8165 28.24C96.6165 28.4533 96.3632 28.56 96.0565 28.56H93.5165V29.28H96.0165C96.5232 29.28 96.9498 29.1267 97.2965 28.82C97.6565 28.5 97.8365 28.0333 97.8365 27.42C97.8365 26.8067 97.6565 26.3467 97.2965 26.04C96.9498 25.72 96.5232 25.56 96.0165 25.56ZM96.0165 26.88H93.5165V27.96H96.0165C96.1632 27.96 96.2832 27.92 96.3765 27.84C96.4698 27.7467 96.5165 27.6067 96.5165 27.42C96.5165 27.2333 96.4698 27.1 96.3765 27.02C96.2832 26.9267 96.1632 26.88 96.0165 26.88ZM105.679 33L101.999 28.4L103.959 24.96H104.659L102.719 28.34L103.199 28.94L105.499 24.96H106.199L103.599 29.42L106.459 33H105.679ZM101.159 33V24.96H101.759V29.24L104.759 33H103.999L101.759 30.2V33H101.159ZM99.8387 33V24.96H100.439V33H99.8387ZM108.776 33V24.96H109.376V31.08H112.956V31.68H109.376V32.4H112.956V33H108.776ZM107.456 33V24.96H108.056V33H107.456ZM116.316 29.1L113.476 24.96H114.216L115.876 27.38L117.536 24.96H118.276L116.256 27.94L116.676 28.56L119.156 24.96H119.896L117.056 29.1H116.316ZM114.696 29.1L111.856 24.96H112.596L115.436 29.1H114.696ZM116.236 33V29.58H116.836V33H116.236ZM114.916 33V29.58H115.516V33H114.916Z" fill="#706DF3"/>
<rect width="55.7823" height="50" rx="7" fill="#706DF3"/>
<g filter="url(#filter0_di_1_8)">
<path d="M25.592 35L20.744 15.704H21.488L26.336 35H25.592ZM22.328 35L17.48 15.704H18.224L23.072 35H22.328ZM23.96 35L19.112 15.704H19.856L24.704 35H23.96ZM26.792 33.224L26.408 31.712L30.44 15.704H31.184L26.792 33.224ZM25.952 30.008L25.592 28.544L28.808 15.704H29.552L25.952 30.008ZM25.136 26.744L24.8 25.232L27.176 15.704H27.92L25.136 26.744ZM35.456 33.176L35.096 31.688L39.104 15.704H39.848L35.456 33.176ZM34.664 29.912L34.304 28.424L37.472 15.704H38.216L34.664 29.912ZM33.824 26.648L33.464 25.16L35.84 15.704H36.584L33.824 26.648ZM34.28 35L30.752 21.008L31.136 19.496L35.024 35H34.28ZM32.672 35L29.96 24.176L30.32 22.712L33.416 35H32.672ZM31.04 35L29.12 27.416L29.504 25.904L31.784 35H31.04Z" fill="white"/>
</g>
<defs>
<filter id="filter0_di_1_8" x="13.48" y="15.704" width="30.368" height="27.296" filterUnits="userSpaceOnUse" color-interpolation-filters="sRGB">
<feFlood flood-opacity="0" result="BackgroundImageFix"/>
<feColorMatrix in="SourceAlpha" type="matrix" values="0 0 0 0 0 0 0 0 0 0 0 0 0 0 0 0 0 0 127 0" result="hardAlpha"/>
<feOffset dy="4"/>
<feGaussianBlur stdDeviation="2"/>
<feComposite in2="hardAlpha" operator="out"/>
<feColorMatrix type="matrix" values="0 0 0 0 0 0 0 0 0 0 0 0 0 0 0 0 0 0 0.25 0"/>
<feBlend mode="normal" in2="BackgroundImageFix" result="effect1_dropShadow_1_8"/>
<feBlend mode="normal" in="SourceGraphic" in2="effect1_dropShadow_1_8" result="shape"/>
<feColorMatrix in="SourceAlpha" type="matrix" values="0 0 0 0 0 0 0 0 0 0 0 0 0 0 0 0 0 0 127 0" result="hardAlpha"/>
<feOffset dy="4"/>
<feGaussianBlur stdDeviation="2"/>
<feComposite in2="hardAlpha" operator="arithmetic" k2="-1" k3="1"/>
<feColorMatrix type="matrix" values="0 0 0 0 0 0 0 0 0 0 0 0 0 0 0 0 0 0 0.25 0"/>
<feBlend mode="normal" in2="shape" result="effect2_innerShadow_1_8"/>
</filter>
</defs>
</svg>
